<?xml version="1.0" ?><svg id="Layer_1" style="enable-background:new 0 0 256 256;" version="1.1" viewBox="0 0 256 256" xml:space="preserve" xmlns="http://www.w3.org/2000/svg" xmlns:xlink="http://www.w3.org/1999/xlink"><style type="text/css">
	.st0{fill:#D5E2EB;}
	.st1{fill:#FFFFFF;}
	.st2{fill:#4B687F;}
</style><g id="Layer_2"><circle class="st0" cx="128" cy="128" r="120"/></g><g><g><path class="st1" d="M197.7,151.3c-5.1,4.9-12,7.9-19.7,7.9H96.3c2.5-5.6,7.5-9.9,13.6-11.5c0.9-6.7,4-12.8,8.9-17.6    c5.7-5.5,13.2-8.5,21.1-8.5c11.4,0,21.7,6.4,26.9,16.2c2.8-1.2,5.9-1.8,9-1.8c5.9,0,11.6,2.2,15.9,6.2    C194.4,144.7,196.4,147.9,197.7,151.3z"/></g><g><path class="st2" d="M206.5,130.7c0,6-1.9,11.6-5.1,16.2c-1.5-3.2-3.7-6.1-6.3-8.5c-5.3-4.9-12.2-7.6-19.4-7.6    c-2.3,0-4.5,0.3-6.6,0.8c-6.6-9.5-17.4-15.2-29.2-15.2c-9.3,0-18.1,3.6-24.7,10c-5,4.8-8.3,10.8-9.9,17.4    c-6.9,2.9-12.2,8.5-14.6,15.5H63.5c-13.2-0.1-24-10.9-24-24.1c0-13.3,10.8-24.1,24.1-24.1c0.2,0,0.5,0,0.7,0    c1.6-5.8,4.7-11.1,9.2-15.2c5.9-5.5,13.7-8.5,21.8-8.5c4.2,0,8.4,0.8,12.3,2.4c7.1-13.5,21.2-22.2,36.7-22.2    c10.8,0,21.1,4.2,28.9,11.7c6.7,6.5,11,14.9,12.2,24.1C197.7,106.4,206.5,117.6,206.5,130.7z"/></g></g><g><path class="st1" d="M216.5,171c0,9.7-7.9,17.6-17.5,17.6h-83.7c-11.5,0-20.8-9.3-20.8-20.8c0-3.1,0.6-6,1.8-8.6   c2.5-5.6,7.5-9.9,13.6-11.5c0.9-6.7,4-12.8,8.9-17.6c5.7-5.5,13.2-8.5,21.1-8.5c11.4,0,21.7,6.4,26.9,16.2c2.8-1.2,5.9-1.8,9-1.8   c5.9,0,11.6,2.2,15.9,6.2c2.8,2.6,4.8,5.7,6.1,9.1c0.2,0.7,0.5,1.3,0.6,2c0.2,0,0.3,0,0.5,0C208.6,153.3,216.5,161.2,216.5,171z"/></g></svg>